<?xml version="1.0" standalone="no"?>
<svg viewBox="0 0 200 200" xmlns="http://www.w3.org/2000/svg">
  <path fill="#FF0066" d="M48,-71.5C61,-66.4,69.4,-51,74.1,-35.4C78.8,-19.8,79.8,-4.1,74.8,8.7C69.8,21.6,58.9,31.5,49.4,43.3C40,55,32,68.6,20.5,73.9C8.9,79.1,-6.2,76,-22,72.5C-37.7,69,-54.1,65,-66.4,55.1C-78.6,45.2,-86.9,29.5,-87.3,13.8C-87.7,-1.9,-80.2,-17.6,-72.9,-33.2C-65.6,-48.7,-58.4,-64.3,-46.3,-69.8C-34.2,-75.3,-17.1,-70.8,0.2,-71.1C17.5,-71.5,35.1,-76.7,48,-71.5Z" transform="translate(100 100)" />
</svg>
